<svg width="3" height="12" viewBox="0 0 3 12" fill="none" xmlns="http://www.w3.org/2000/svg">
<path d="M1.83301 9.33333C2.09822 9.33333 2.35258 9.43869 2.54011 9.62623C2.72765 9.81376 2.83301 10.0681 2.83301 10.3333C2.83301 10.5985 2.72765 10.8529 2.54011 11.0404C2.35258 11.228 2.09822 11.3333 1.83301 11.3333C1.56779 11.3333 1.31344 11.228 1.1259 11.0404C0.938364 10.8529 0.833008 10.5985 0.833008 10.3333C0.833008 10.0681 0.938364 9.81376 1.1259 9.62623C1.31344 9.43869 1.56779 9.33333 1.83301 9.33333ZM1.83301 4.66667C2.09822 4.66667 2.35258 4.77202 2.54011 4.95956C2.72765 5.1471 2.83301 5.40145 2.83301 5.66667C2.83301 5.93188 2.72765 6.18624 2.54011 6.37377C2.35258 6.56131 2.09822 6.66667 1.83301 6.66667C1.56779 6.66667 1.31344 6.56131 1.1259 6.37377C0.938364 6.18624 0.833008 5.93188 0.833008 5.66667C0.833008 5.40145 0.938364 5.1471 1.1259 4.95956C1.31344 4.77202 1.56779 4.66667 1.83301 4.66667ZM1.83301 0C2.09822 0 2.35258 0.105357 2.54011 0.292893C2.72765 0.48043 2.83301 0.734783 2.83301 1C2.83301 1.26522 2.72765 1.51957 2.54011 1.70711C2.35258 1.89464 2.09822 2 1.83301 2C1.56779 2 1.31344 1.89464 1.1259 1.70711C0.938364 1.51957 0.833008 1.26522 0.833008 1C0.833008 0.734783 0.938364 0.48043 1.1259 0.292893C1.31344 0.105357 1.56779 0 1.83301 0Z" fill="#667085"/>
</svg>
